HIERARCHY
ROOT Hips
{
	OFFSET 0.000000 8.830580 0.000000
	CHANNELS 6 Xposition Yposition Zposition Zrotation Yrotation Xrotation 
	JOINT Spine
	{
		OFFSET 0.000000 0.010000 0.000000
		CHANNELS 3 Zrotation Yrotation Xrotation
		JOINT Spine1
		{
			OFFSET 0.000000 2.459130 0.000000
			CHANNELS 3 Zrotation Yrotation Xrotation
			JOINT Neck
			{
				OFFSET 0.000000 2.484630 0.000000
				CHANNELS 3 Zrotation Yrotation Xrotation
				JOINT Head_virtual
				{
					OFFSET 0.000000 0.000000 0.000000
					CHANNELS 3 Zrotation Yrotation Xrotation
					JOINT Head
					{
						OFFSET 0.000000 0.927525 0.000000
						CHANNELS 3 Zrotation Yrotation Xrotation
						End Site
						{
							OFFSET 0.000000 0.000000 0.000000
						}
					}
				}
				JOINT LeftUpArm_virtual
				{
					OFFSET 0.000000 0.000000 0.000000
					CHANNELS 3 Zrotation Yrotation Xrotation
					JOINT LeftUpArm
					{
						OFFSET 1.248820 0.000000 0.000000
						CHANNELS 3 Zrotation Yrotation Xrotation
						JOINT LeftForeArm
						{
							OFFSET 2.597580 0.000000 0.000000
							CHANNELS 3 Zrotation Yrotation Xrotation
							JOINT LeftHand
							{
								OFFSET 2.455420 0.000000 0.000000
								CHANNELS 3 Zrotation Yrotation Xrotation
								End Site
								{
									OFFSET 0.000000 0.000000 0.000000
								}
							}
						}
					}
				}
				JOINT RightUpArm_virtual
				{
					OFFSET -0.000000 -0.000000 -0.000000
					CHANNELS 3 Zrotation Yrotation Xrotation
					JOINT RightUpArm
					{
						OFFSET -1.248820 -0.000000 -0.000000
						CHANNELS 3 Zrotation Yrotation Xrotation
						JOINT RightForeArm
						{
							OFFSET -2.597580 -0.000000 -0.000000
							CHANNELS 3 Zrotation Yrotation Xrotation
							JOINT RightHand
							{
								OFFSET -2.455420 -0.000000 -0.000000
								CHANNELS 3 Zrotation Yrotation Xrotation
								End Site
								{
									OFFSET 0.000000 0.000000 0.000000
								}
							}
						}
					}
				}
			}
		}
	}
	JOINT LeftUpLeg
	{
		OFFSET 1.271939 0.000000 0.000000
		CHANNELS 3 Zrotation Yrotation Xrotation
		JOINT LeftLowLeg
		{
			OFFSET 0.000000 -4.342910 0.000000
			CHANNELS 3 Zrotation Yrotation Xrotation
			JOINT LeftFoot
			{
				OFFSET 0.000000 -4.487670 0.000000
				CHANNELS 3 Zrotation Yrotation Xrotation
				JOINT LeftToeBase
				{
					OFFSET 0.000000 0.000000 1.515070
					CHANNELS 3 Zrotation Yrotation Xrotation
					End Site
					{
						OFFSET 0.000000 0.000000 0.000000
					}
				}
			}
		}
	}
	JOINT RightUpLeg
	{
		OFFSET -1.271939 0.000000 0.000000
		CHANNELS 3 Zrotation Yrotation Xrotation
		JOINT RightLowLeg
		{
			OFFSET 0.000000 -4.342910 0.000000
			CHANNELS 3 Zrotation Yrotation Xrotation
			JOINT RightFoot
			{
				OFFSET 0.000000 -4.487670 0.000000
				CHANNELS 3 Zrotation Yrotation Xrotation
				JOINT RightToeBase
				{
					OFFSET 0.000000 0.000000 1.515070
					CHANNELS 3 Zrotation Yrotation Xrotation
					End Site
					{
						OFFSET 0.000000 0.000000 0.000000
					}
				}
			}
		}
	}
}
MOTION
Frames: 11
Frame Time: 0.041667
-16.981259 8.722530 49.783601 -178.457863 12.158176 -175.733820 6.854311 15.684478 -11.823236 -6.835338 6.145648 13.995155 0.000000 0.000000 0.000000 14.078967 -21.969230 -6.578716 -19.522634 19.349688 -81.019440 -22.465500 2.587140 3.051390 -50.217300 1.814000 -18.934700 0.000000 -1.647920 0.000000 16.624901 13.627600 27.260200 23.096701 5.249010 5.004840 53.758701 49.771702 8.050995 0.000000 6.723070 0.000000 -9.726080 -5.037390 31.346001 -6.342238 -10.592278 -10.657980 0.000000 0.000000 27.233000 2.232805 15.437570 -9.714086 0.000000 0.000000 -12.972000 3.439491 3.969976 -23.200313 0.000000 0.000000 68.686600 20.968862 -3.863949 5.274503 0.000000 0.000000 -23.567610 
-16.904534 8.775046 49.615001 -177.499027 11.667776 -175.693968 7.431569 15.188090 -11.940903 -6.760973 5.357635 13.900640 0.000000 0.000000 0.000000 14.035775 -21.429060 -5.745820 -20.215929 19.757713 -81.664629 -22.651100 1.728370 3.480720 -50.433601 -0.669943 -12.218300 0.000000 -4.453290 0.000000 13.095900 13.756600 22.589500 23.354799 4.841630 5.386610 54.533199 50.560799 8.153992 0.000000 6.299590 0.000000 -8.959900 -5.433520 32.228100 -5.357457 -11.516585 -8.818292 0.000000 0.000000 26.196199 1.320985 15.614592 -9.711388 0.000000 0.000000 -13.045430 3.742581 4.506367 -24.623154 0.000000 0.000000 64.948997 19.509115 -6.794566 4.154629 0.000000 0.000000 -23.173410 
-16.827447 8.823415 49.455884 -176.877809 11.246253 -175.512855 7.689233 14.758282 -12.086980 -6.752683 4.800850 13.872238 0.000000 0.000000 0.000000 14.388111 -21.105773 -5.276379 -20.792527 20.149230 -82.461292 -22.959801 0.702513 3.829700 -49.958801 -3.763220 -7.824610 0.000000 -6.623850 0.000000 11.203700 13.305700 21.430201 23.367001 4.597110 4.899250 55.797001 50.506901 8.907990 0.000000 6.128910 0.000000 -8.752230 -5.736990 33.099998 -4.655879 -12.158709 -7.360822 0.000000 0.000000 25.324100 0.739916 15.650638 -9.298016 0.000000 0.000000 -13.527340 3.604866 5.524711 -25.859233 0.000000 0.000000 60.092300 18.112924 -9.629400 3.064417 0.000000 0.000000 -22.603960 
-16.749376 8.864497 49.296840 -176.539656 10.775783 -175.338681 7.696549 14.327062 -12.327438 -6.755043 4.410091 13.979026 0.000000 0.000000 0.000000 14.787730 -20.866477 -5.058903 -21.034701 20.569525 -82.873848 -23.229900 -0.487641 4.035000 -49.073101 -6.448520 -2.088490 0.000000 -9.886400 0.000000 10.273200 13.497500 20.882099 23.193899 4.255760 4.384430 57.136902 50.412998 9.549011 0.000000 6.170060 0.000000 -8.710700 -5.546290 33.724098 -4.148177 -12.236521 -6.158928 0.000000 0.000000 24.776100 0.548219 15.205546 -8.679274 0.000000 0.000000 -14.075373 3.033789 7.114791 -26.675539 0.000000 0.000000 54.155701 16.570435 -12.843140 2.200067 0.000000 0.000000 -22.188260 
-16.668907 8.895715 49.139256 -176.318223 10.056065 -175.200159 7.620614 13.892144 -12.404560 -6.792247 3.977678 13.828972 0.000000 0.000000 0.000000 15.058081 -20.703900 -4.961228 -20.906808 20.948837 -82.756991 -23.528200 -1.568460 4.351660 -47.665401 -9.236870 3.387440 0.000000 -13.465500 0.000000 11.175100 13.736000 21.111099 23.023800 3.872160 4.208040 58.098999 50.438202 10.411011 0.000000 6.408760 0.000000 -8.875630 -5.469500 33.661999 -3.642184 -12.230509 -5.230454 0.000000 0.000000 24.660900 0.108772 14.203382 -8.269995 0.000000 0.000000 -14.861338 2.145455 9.070424 -26.998851 0.000000 0.000000 47.214600 15.171989 -16.143329 1.665905 0.000000 0.000000 -22.372880 
-16.587728 8.917115 48.979536 -176.184187 9.164333 -175.035192 7.502231 13.438529 -12.510559 -6.829156 3.542535 13.624234 0.000000 0.000000 0.000000 15.071016 -20.564792 -4.904435 -20.446605 21.216915 -82.182490 -23.801001 -2.426660 4.848000 -45.966900 -12.351500 7.663630 0.000000 -16.935699 0.000000 13.229700 12.832900 22.949301 22.701599 3.541390 4.082250 59.096901 50.423199 11.399994 0.000000 6.593530 0.000000 -9.300480 -5.261710 32.808201 -3.156462 -12.334746 -4.517285 0.000000 0.000000 24.860300 -0.159371 13.211019 -7.928832 0.000000 0.000000 -15.782409 0.857388 11.513597 -26.932131 0.000000 0.000000 39.578999 14.166691 -18.888954 1.787700 0.000000 0.000000 -22.413130 
-16.509255 8.927917 48.813485 -176.188980 8.243738 -175.373117 7.457499 13.069564 -12.277188 -6.863094 3.147794 13.645285 0.000000 0.000000 0.000000 14.903402 -20.539505 -5.064360 -19.860280 21.348571 -81.236492 -23.911600 -3.356050 5.838470 -44.264999 -15.742800 10.011100 0.000000 -20.703600 0.000000 15.786000 12.145700 25.823200 22.257200 3.286510 4.215680 59.803299 50.685799 12.437988 0.000000 6.683290 0.000000 -9.882880 -5.359000 31.443399 -2.985906 -12.898548 -3.343161 0.000000 0.000000 25.181299 -0.557582 12.630742 -7.685167 0.000000 0.000000 -16.747710 -0.960793 14.832008 -26.087564 0.000000 0.000000 31.823000 13.975916 -19.919907 1.803326 0.000000 0.000000 -21.984300 
-16.433838 8.928535 48.643904 -176.317620 7.216407 -175.708205 7.514026 12.818828 -12.147400 -7.280116 2.747156 13.710363 0.000000 0.000000 0.000000 14.685905 -20.577506 -4.849847 -19.409410 21.313757 -80.510064 -23.924999 -3.979780 6.394870 -42.638100 -19.275299 11.380100 0.000000 -23.590401 0.000000 18.883499 10.092800 27.954100 21.946699 3.239860 4.329500 60.311199 50.916500 12.622986 0.000000 6.410460 0.000000 -10.003700 -5.304780 31.138201 -2.983990 -13.753164 -2.264055 0.000000 0.000000 25.688499 -1.057320 12.197778 -7.592791 0.000000 0.000000 -17.463100 -3.392444 19.056364 -25.289426 0.000000 0.000000 24.646400 14.182951 -19.622927 1.993307 0.000000 0.000000 -22.227260 
-16.352539 8.919036 48.465774 -176.460416 6.399438 -176.287253 7.542221 12.722138 -12.036255 -7.601828 2.588046 13.963431 0.000000 0.000000 0.000000 14.306349 -20.729407 -4.058966 -19.099607 20.883925 -80.273410 -23.869900 -4.461380 7.117950 -41.062500 -23.096001 11.403600 0.000000 -26.034201 0.000000 20.639799 7.758200 29.297400 21.777399 3.494740 4.492870 60.174801 51.020100 12.261993 0.000000 6.093750 0.000000 -9.759890 -5.400700 31.340799 -3.048816 -14.311613 -0.721231 0.000000 0.000000 25.960100 -1.226569 11.828204 -7.594885 0.000000 0.000000 -18.653420 -5.674517 23.397777 -24.469416 0.000000 0.000000 18.924700 12.890558 -19.387209 2.270189 0.000000 0.000000 -21.675640 
-16.263655 8.901328 48.282598 -176.427832 5.607189 -176.738845 7.639839 12.690905 -12.074056 -7.895051 2.462723 14.094086 0.000000 0.000000 0.000000 13.507748 -20.685504 -2.628817 -18.679868 20.127476 -80.478833 -23.660601 -4.968060 6.757820 -40.230598 -25.919701 10.921300 0.000000 -28.093201 0.000000 22.294001 5.022130 30.217400 21.951000 3.862990 4.712090 59.583801 51.006500 11.522003 0.000000 5.819290 0.000000 -9.337270 -5.303720 32.355999 -2.818190 -14.520361 0.733198 0.000000 0.000000 26.285200 -1.535429 11.117674 -7.959924 0.000000 0.000000 -19.139680 -7.116861 26.599684 -23.892408 0.000000 0.000000 15.201800 12.302724 -18.659398 2.876093 0.000000 0.000000 -22.488320 
-16.166538 8.873693 48.086067 -176.255808 4.773203 -177.414625 7.620726 12.530780 -12.192226 -7.715350 2.422716 14.315669 0.000000 0.000000 0.000000 12.299076 -20.497002 -0.978050 -17.874781 19.177089 -80.374856 -23.288900 -5.196940 6.700470 -40.045300 -28.778200 9.548150 0.000000 -30.559900 0.000000 23.181499 3.800880 29.105499 22.179001 4.178810 5.066600 58.702499 51.000999 11.399994 0.000000 5.759530 0.000000 -9.111910 -5.435340 32.398899 -2.458274 -14.638722 2.436601 0.000000 0.000000 26.770500 -1.709580 10.446244 -8.471517 0.000000 0.000000 -20.247660 -6.933846 27.751242 -23.196166 0.000000 0.000000 14.374400 13.566474 -17.567106 3.011253 0.000000 0.000000 -22.990740 
